<?xml version="1.0" encoding="utf-8"?>
<!-- Generator: Adobe Illustrator 21.1.0, SVG Export Plug-In . SVG Version: 6.00 Build 0)  -->
<svg version="1.1" id="Layer_1" xmlns="http://www.w3.org/2000/svg" xmlns:xlink="http://www.w3.org/1999/xlink" x="0px" y="0px"
	 viewBox="0 0 333 50" style="enable-background:new 0 0 333 50;" xml:space="preserve">
<style type="text/css">
	.st0{fill:#FF0000;}
	.st1{fill:#FFFFFF;}
</style>
<g>
	<image style="overflow:visible;" width="44" height="38" xlink:href="9C6E8B5E.png"  transform="matrix(1 0 0 1 1 12)">
	</image>
	<image style="overflow:visible;" width="45" height="39" xlink:href="9C6E8B62.png"  transform="matrix(1 0 0 1 27 2)">
	</image>
</g>
<g>
	<path class="st0" d="M80.9,34.4c-1.2-1.2-2.2-2.9-1.9-5.2c0.7-4.5,10.2-10,12.3-10.8c-0.9-1.2-1.6-2.4-1.6-3.6
		c-0.2-3.6,3.8-7.3,8.3-7.6c2.9-0.2,6.9,1.7,7.3,4.3c0.2,1.6-4,6.2-5.6,6.6c-0.2,0.1-0.2-0.2-0.2-0.4c0.5-1.2,1.3-4.6,1.2-6.5
		c-0.2-1.7-1.1-2.6-2.9-2.6c-1.9,0-4.4,1.9-4.2,4.8c0.2,3.5,8.8,9,9.1,13.5c0.3,4.9-4,8.5-8.7,9.8C90.1,37.6,84.1,37.4,80.9,34.4z
		 M91.9,19c-4,2.5-8.2,7.1-7.9,11.8c0.2,3.4,2.9,4.7,6,4.7c3.6,0,8.6-2.1,8.3-6.6C98.1,25.2,94.4,22,91.9,19z"/>
	<path class="st0" d="M111.6,24.2c1.5-3,5.9-7.6,7.6-7.6c1.7,0,3.8,1.8,4,2.9c0.2,1.2-0.2,3.3-1,5.5c-1,3-3.9,10-8,10
		c-2.2,0-4.2-1.2-5.8-2.9l-0.5,1.5c-1,2.9-1.9,5.8-2.7,9c-0.1,0.7-0.3,1.5-0.4,2.6c-0.1,0.1-0.2,0.1-0.3,0.1c-0.9,0-3.1-2.1-3.1-2.6
		c0-1.3,1.3-5.5,2.9-9.9c1.1-3,2.6-7.2,4.6-11.8c0.7-1.5,1.5-2.9,1.9-3.4c0.1-0.1,0.3-0.3,0.6-0.3c1.1,0,3.1,1.2,3.1,1.5
		c-0.3,0.2-0.8,1.1-1.2,1.9C112.6,21.7,112.4,22.3,111.6,24.2z M109,31c0.6,0.7,1.9,1.4,3.1,1.4c2.4,0,4.9-5.7,5.9-8.5
		c0.7-2.1,1.3-4,1.3-4.9c0-0.2,0-0.6-0.3-0.6C116.5,18.5,109.9,28.6,109,31z"/>
	<path class="st0" d="M136.2,16.7c2,0,3.7,2.6,3.7,3.8c0,6.3-5.9,14.5-10.6,14.5c-2.7,0-5.5-1.9-5.5-4.9c0-5.8,6.1-13.8,10.6-13.8
		c0.7,0,1.1,0.2,1.6,0.4H136.2z M136.5,19.5c0-0.3-0.1-1.5-0.7-1.5c-2.8,0-8,8.9-8,13.6c0,0.8,0.2,1.6,1.1,1.6
		C131.6,33.2,136.4,23,136.5,19.5z"/>
	<path class="st0" d="M146.7,17.4c0.1-0.2,0.3-0.2,0.5-0.2c1.1,0,3.3,1.5,3.1,1.5c-0.4,0.2-1.1,1.6-1.6,2.5c-1.3,2.8-4.1,8.7-4.3,11
		c0,0.2,0.1,0.3,0.2,0.3c1,0,11.9-15.4,12.5-15.5c0.9-0.2,3.1,1.2,3.1,1.5c-0.4,0.2-1.2,1.6-1.6,2.5c-1.4,3.2-2.2,5.2-2.9,7
		c-1.1,3.1-2.2,6.4-1.8,7.3c-1.4-0.2-3.8-1.8-3.8-2.7c0-0.9,2.1-6.7,3-8.7c-3.1,4.7-7.4,11-7.8,11c-2.2,0.1-5.2-2-5.1-3.6
		C140.5,30.1,144.1,20.8,146.7,17.4z"/>
	<path class="st0" d="M164,21.8c0-3.1,3-5.6,6-5.7c2-0.1,4.5,1.3,4.9,3.3c-0.1,1.3-3.1,3.6-3.4,3.6c-0.3,0-0.4-0.1-0.4-0.3
		c0.1-0.7,0.3-2.5,0-3.6c-0.2-1.1-0.8-1.6-1.7-1.6c-1.2,0-1.6,0.8-1.6,1.9c0.1,3.2,4.1,9.4,4.3,10.9c0,0.2,0.1,0.3,0.1,0.5
		c0,3-4.5,4.4-7,4.4c-3.4,0.1-7.2-1.3-7.2-4c-0.1-2.4,4.7-5.9,6.8-6.8C164.3,23.6,164,22.6,164,21.8z M164.5,33.7
		c0.8,0,3.1-0.4,3-1.9c-0.1-1.8-1.5-4.3-2.5-6.5c-2.4,1.9-3.7,3.8-3.8,5.5C161.2,32.6,162.7,33.7,164.5,33.7z"/>
	<path class="st0" d="M178.9,31.4c0,0.9,0.4,1.4,1,1.4c2,0,6-2.2,9.8-6.1c0.3,0,0.2,0.8,0.1,1.1c-1.2,2.2-6.8,7.3-9.7,7.3
		c-2.6,0-5.3-2.4-5.3-4.4c0-5,5.9-14.3,10.6-14.3c2.6,0,5.2,1.9,5.2,4.4c0,2.2-5.2,5.5-8.2,6.2c-1,0.2-1.9,0.2-2.4,0.2
		C179.3,28.7,178.9,30.2,178.9,31.4z M186.7,18.3c-1.5,0-4.4,3.7-6.1,7.3c0.7-0.1,1.2-0.1,1.9-0.4c1.5-0.7,4.1-3,4.8-5.6
		C187.4,18.8,187.2,18.3,186.7,18.3z"/>
	<path class="st1" d="M200.3,34.4c-1.2-1.2-2.2-2.9-1.9-5.2c0.7-4.5,10.2-10,12.3-10.8c-0.9-1.2-1.6-2.4-1.7-3.6
		c-0.2-3.6,3.8-7.3,8.3-7.6c2.9-0.2,6.9,1.7,7.3,4.3c0.2,1.6-4,6.2-5.6,6.6c-0.2,0.1-0.2-0.2-0.2-0.4c0.5-1.2,1.3-4.6,1.2-6.5
		c-0.2-1.7-1.1-2.6-2.9-2.6c-1.9,0-4.4,1.9-4.2,4.8c0.2,3.5,8.8,9,9.1,13.5c0.3,4.9-4,8.5-8.7,9.8C209.5,37.6,203.5,37.4,200.3,34.4
		z M211.3,19c-4,2.5-8.2,7.1-7.9,11.8c0.2,3.4,2.9,4.7,6,4.7c3.6,0,8.6-2.1,8.3-6.6C217.5,25.2,213.8,22,211.3,19z"/>
	<path class="st1" d="M228.7,31.4c0,0.9,0.4,1.4,1,1.4c2,0,6-2.2,9.8-6.1c0.3,0,0.2,0.8,0.1,1.1c-1.2,2.2-6.8,7.3-9.7,7.3
		c-2.6,0-5.3-2.4-5.3-4.4c0-5,5.9-14.3,10.6-14.3c2.6,0,5.2,1.9,5.2,4.4c0,2.2-5.2,5.5-8.2,6.2c-1,0.2-1.9,0.2-2.4,0.2
		C229.1,28.7,228.7,30.2,228.7,31.4z M236.6,18.3c-1.5,0-4.4,3.7-6.1,7.3c0.7-0.1,1.2-0.1,1.9-0.4c1.5-0.7,4.1-3,4.8-5.6
		C237.3,18.8,237.1,18.3,236.6,18.3z"/>
	<path class="st1" d="M254.6,19.4c0.5-1,1-1.7,1.3-2c0.1-0.1,0.3-0.3,0.5-0.3c1.1,0,3.1,1.2,3.2,1.6c-0.4,0.2-1.1,1.6-1.6,2.5
		c-1.5,3.1-2.4,5.6-3.1,7.4c-0.9,2.6-1.6,4.9-1.7,6.1c0,0.3,0,0.5,0.1,0.7c-1.4-0.2-3.8-1.8-3.8-2.7c0-0.8,1.3-4.5,1.8-5.8
		c-2.8,4.3-5.5,8.1-6.2,8.1c-2.2,0-5.1-2.1-5.1-3.7c0-2.8,2.3-8,4.9-11.4c1.5-2,3.2-3.4,4.5-3.4C251.4,16.6,253.7,17.3,254.6,19.4z
		 M244.4,32.9c1.1,0,6.5-7.7,9.2-12.3c-0.3-0.9-0.8-1.9-1.8-1.9c-2.8,0-7.9,10-7.8,13.6C244,32.7,244.2,32.9,244.4,32.9z"/>
	<path class="st1" d="M271.3,24.1c-0.1-0.7,0.5-4.4,0.8-5.9c-2.6,2.4-5.6,5.9-7.8,9.9c-0.8,1.5-2.5,4.9-2.5,6.3c0,0.2,0,0.4,0.1,0.5
		c-1.4-0.2-3.5-1.8-3.5-2.7c0-1.4,3.6-11.6,5.9-14.9c0.1-0.2,0.3-0.2,0.5-0.2c1.1,0,3.1,1.2,3.1,1.5c-0.5,0.1-2.1,3.5-3.6,7.3
		c1.7-3.6,6.8-9.6,8-9.6c1.7,0,4,1.6,4.1,2.3c-0.1,0.2-1.1,1.5-2,2.8c-1,1.4-2,3-2.1,3.2C272,24.6,271.3,24.3,271.3,24.1z"/>
	<path class="st1" d="M280,25.7c-1.4,3-1.7,4.5-1.7,5.7c0,0.9,0.4,1.4,1,1.4c2,0,6.2-2.7,9.3-6.2c0.3,0,0.2,0.8,0.1,1.1
		c-1,1.7-6.4,7.4-9.3,7.4c-2.6,0-5.3-2.4-5.3-4.4c0-4.8,5.9-14.7,10.7-14.3c1.8,0.2,4.5,1.4,4.8,3.5c-0.1,1.3-2.9,3.7-3.1,3.7
		s-0.3-0.1-0.3-0.3c0.2-1,0.5-2.3,0.5-3.7c0-0.6-0.2-1.1-0.6-1.1C284.6,18.4,281.5,22.3,280,25.7z"/>
	<path class="st1" d="M288.7,32.2c0-0.7,1-4.1,3.4-9.7c1-2.3,3-6.8,4-8.7c0.7-1.3,1.5-2.8,1.9-3.3c0.1-0.1,0.3-0.3,0.5-0.3
		c1.1,0,3,1.2,3.1,1.5c-0.4,0.2-1.1,1.6-1.6,2.5c-1,2-4.2,8.8-5.8,13.3c1.3-2.6,3.4-5.5,5.3-7.6c1-1.1,3.3-3.4,4.8-3.4
		c1.2,0,3.3,1.7,3.4,2.2c-1.2,2.2-6.6,15.8-5.5,16.7c-1.4-0.2-3.9-1.9-3.9-2.7c0-2.2,3.7-11.1,5.3-13.8c-0.4-0.2-0.9,0.2-1.6,0.7
		c-2.3,2-9.6,12.1-9.6,14.7c0,0.2,0,0.3,0.1,0.5C291.1,34.6,288.7,33.1,288.7,32.2z"/>
</g>
<g>
</g>
<g>
</g>
<g>
</g>
<g>
</g>
<g>
</g>
<g>
</g>
<g>
</g>
<g>
</g>
<g>
</g>
<g>
</g>
<g>
</g>
<g>
</g>
<g>
</g>
<g>
</g>
<g>
</g>
</svg>
