<?xml version="1.0" encoding="utf-8"?>
<!-- Generator: Adobe Illustrator 22.0.1, SVG Export Plug-In . SVG Version: 6.00 Build 0)  -->
<svg version="1.1" id="Layer_1" xmlns="http://www.w3.org/2000/svg" xmlns:xlink="http://www.w3.org/1999/xlink" x="0px" y="0px"
	 viewBox="0 0 149.6 30" style="enable-background:new 0 0 149.6 30;" xml:space="preserve">
<style type="text/css">
	.st0{fill:url(#SVGID_1_);}
	.st1{opacity:0.79;fill:url(#SVGID_2_);}
	.st2{fill:#464951;}
	.st3{fill:#FA4150;}
</style>
<g>
	<linearGradient id="SVGID_1_" gradientUnits="userSpaceOnUse" x1="38.4549" y1="19.1658" x2="8.0517" y2="10.9115">
		<stop  offset="0" style="stop-color:#FD6576"/>
		<stop  offset="5.972887e-02" style="stop-color:#FC5E6E"/>
		<stop  offset="0.2726" style="stop-color:#FB4958"/>
		<stop  offset="0.4086" style="stop-color:#FA4150"/>
		<stop  offset="0.5331" style="stop-color:#F33D4B"/>
		<stop  offset="0.7132" style="stop-color:#E0313C"/>
		<stop  offset="0.926" style="stop-color:#C11D23"/>
		<stop  offset="1" style="stop-color:#B41519"/>
	</linearGradient>
	<path class="st0" d="M36,8.6C35.7,4,31.7,0,25.8,0.3c-2.1,0.1-3.9,1.1-5.2,2.1c0.5,2,1.3,7.1-2.6,11c-3.8,3.8-5.3,9.2-5.1,12.7
		c2,1.5,4,2.7,5.4,3.6c3.2-1.8,8.6-5.7,12.1-9.6C33,17.4,36.3,13.2,36,8.6z"/>
	<linearGradient id="SVGID_2_" gradientUnits="userSpaceOnUse" x1="2.3987" y1="4.5894" x2="39.4048" y2="29.627">
		<stop  offset="0" style="stop-color:#FD6576"/>
		<stop  offset="5.972887e-02" style="stop-color:#FC5E6E"/>
		<stop  offset="0.2726" style="stop-color:#FB4958"/>
		<stop  offset="0.4086" style="stop-color:#FA4150"/>
		<stop  offset="0.5331" style="stop-color:#F33D4B"/>
		<stop  offset="0.7132" style="stop-color:#E0313C"/>
		<stop  offset="0.926" style="stop-color:#C11D23"/>
		<stop  offset="1" style="stop-color:#B41519"/>
	</linearGradient>
	<path class="st1" d="M18,13.4c4-4,3.2-9,2.6-11C19,3.6,18.1,5,18.1,5S15,0.6,10.3,0.4c-5.9-0.2-9.8,3.9-10,8.5
		C0.1,13.5,3.4,17.6,6,20.3c2,2,4.4,4.1,6.8,5.8C12.7,22.7,14.2,17.2,18,13.4z"/>
</g>
<g>
	<g>
		<path class="st2" d="M50.2,10.9c-1.1-0.3-1.9-0.7-2.4-1.2c-0.5-0.5-0.8-1-0.8-1.7c0-0.8,0.3-1.4,0.9-1.9c0.6-0.5,1.4-0.8,2.4-0.8
			c0.7,0,1.3,0.1,1.8,0.4c0.5,0.3,0.9,0.6,1.2,1.1c0.3,0.5,0.4,1,0.4,1.5h-1.3c0-0.6-0.2-1.1-0.6-1.4c-0.4-0.3-0.9-0.5-1.6-0.5
			c-0.6,0-1.1,0.1-1.5,0.4S48.3,7.5,48.3,8c0,0.4,0.2,0.7,0.5,1c0.3,0.3,0.9,0.5,1.7,0.8c0.8,0.2,1.4,0.5,1.9,0.8
			c0.5,0.3,0.8,0.6,1,1c0.2,0.4,0.3,0.8,0.3,1.3c0,0.8-0.3,1.4-0.9,1.9c-0.6,0.5-1.4,0.7-2.5,0.7c-0.7,0-1.3-0.1-1.9-0.4
			s-1-0.6-1.3-1.1s-0.5-1-0.5-1.5H48c0,0.6,0.2,1.1,0.7,1.4c0.4,0.3,1,0.5,1.7,0.5c0.7,0,1.2-0.1,1.6-0.4c0.4-0.3,0.5-0.7,0.5-1.1
			s-0.2-0.8-0.5-1.1C51.7,11.4,51.1,11.1,50.2,10.9z"/>
		<path class="st2" d="M61.4,11.7c0,1.1-0.3,2-0.8,2.7c-0.5,0.7-1.2,1-2,1c-0.9,0-1.6-0.3-2.1-0.8V18h-1.2V8h1.1l0.1,0.8
			c0.5-0.6,1.2-0.9,2.1-0.9c0.9,0,1.6,0.3,2.1,1c0.5,0.7,0.8,1.6,0.8,2.7V11.7z M60.1,11.5c0-0.8-0.2-1.5-0.5-1.9
			c-0.3-0.5-0.8-0.7-1.4-0.7c-0.7,0-1.3,0.3-1.7,1v3.5c0.4,0.7,0.9,1,1.7,1c0.6,0,1.1-0.2,1.4-0.7C60,13.2,60.1,12.5,60.1,11.5z"/>
		<path class="st2" d="M62.6,11.5c0-0.7,0.1-1.3,0.4-1.9c0.3-0.6,0.7-1,1.2-1.3c0.5-0.3,1.1-0.5,1.7-0.5c1,0,1.8,0.3,2.4,1
			c0.6,0.7,0.9,1.6,0.9,2.7v0.1c0,0.7-0.1,1.3-0.4,1.9c-0.3,0.6-0.7,1-1.2,1.3c-0.5,0.3-1.1,0.5-1.7,0.5c-1,0-1.8-0.3-2.4-1
			C62.9,13.6,62.6,12.7,62.6,11.5L62.6,11.5z M63.8,11.7c0,0.8,0.2,1.4,0.6,1.9c0.4,0.5,0.9,0.7,1.5,0.7c0.6,0,1.1-0.2,1.5-0.7
			c0.4-0.5,0.6-1.2,0.6-2.1c0-0.8-0.2-1.4-0.6-1.9c-0.4-0.5-0.9-0.7-1.5-0.7c-0.6,0-1.1,0.2-1.5,0.7C64,10.1,63.8,10.8,63.8,11.7z"
			/>
		<path class="st2" d="M75.2,14.5c-0.5,0.6-1.2,0.8-2.1,0.8c-0.8,0-1.4-0.2-1.8-0.7c-0.4-0.4-0.6-1.1-0.6-2V8h1.2v4.7
			c0,1.1,0.4,1.6,1.3,1.6c0.9,0,1.6-0.4,1.9-1.1V8h1.2v7.2h-1.2L75.2,14.5z"/>
		<path class="st2" d="M82.5,13.3c0-0.3-0.1-0.6-0.4-0.8c-0.3-0.2-0.7-0.3-1.3-0.5c-0.6-0.1-1.1-0.3-1.5-0.5
			c-0.4-0.2-0.6-0.4-0.8-0.7c-0.2-0.3-0.3-0.6-0.3-0.9c0-0.6,0.3-1.1,0.8-1.5c0.5-0.4,1.1-0.6,1.9-0.6c0.8,0,1.5,0.2,2,0.6
			s0.8,1,0.8,1.6h-1.2c0-0.3-0.1-0.6-0.4-0.9c-0.3-0.2-0.6-0.4-1.1-0.4c-0.4,0-0.8,0.1-1.1,0.3s-0.4,0.5-0.4,0.8
			c0,0.3,0.1,0.5,0.4,0.7s0.7,0.3,1.3,0.4c0.6,0.1,1.1,0.3,1.5,0.5c0.4,0.2,0.7,0.4,0.9,0.7c0.2,0.3,0.3,0.6,0.3,1
			c0,0.6-0.3,1.2-0.8,1.6c-0.5,0.4-1.2,0.6-2,0.6c-0.6,0-1.1-0.1-1.5-0.3c-0.4-0.2-0.8-0.5-1-0.9C78.1,13.8,78,13.4,78,13h1.2
			c0,0.4,0.2,0.7,0.5,1c0.3,0.2,0.7,0.4,1.2,0.4c0.5,0,0.8-0.1,1.1-0.3C82.3,13.9,82.5,13.6,82.5,13.3z"/>
		<path class="st2" d="M88.3,15.3c-1,0-1.8-0.3-2.4-1c-0.6-0.6-0.9-1.5-0.9-2.6v-0.2c0-0.7,0.1-1.4,0.4-1.9c0.3-0.6,0.7-1,1.1-1.3
			c0.5-0.3,1-0.5,1.6-0.5c0.9,0,1.7,0.3,2.2,0.9c0.5,0.6,0.8,1.5,0.8,2.7v0.5h-4.9c0,0.7,0.2,1.3,0.6,1.7s0.9,0.7,1.5,0.7
			c0.4,0,0.8-0.1,1.1-0.3s0.6-0.4,0.8-0.7l0.8,0.6C90.4,14.9,89.5,15.3,88.3,15.3z M88.2,8.9c-0.5,0-0.9,0.2-1.3,0.5
			c-0.3,0.4-0.5,0.9-0.6,1.5h3.6v-0.1c0-0.6-0.2-1.1-0.5-1.5C89.1,9,88.7,8.9,88.2,8.9z"/>
		<path class="st2" d="M99,10.9c-1.1-0.3-1.9-0.7-2.4-1.2c-0.5-0.5-0.8-1-0.8-1.7c0-0.8,0.3-1.4,0.9-1.9c0.6-0.5,1.4-0.8,2.4-0.8
			c0.7,0,1.3,0.1,1.8,0.4c0.5,0.3,0.9,0.6,1.2,1.1c0.3,0.5,0.4,1,0.4,1.5h-1.3c0-0.6-0.2-1.1-0.6-1.4c-0.4-0.3-0.9-0.5-1.6-0.5
			c-0.6,0-1.1,0.1-1.5,0.4c-0.4,0.3-0.5,0.7-0.5,1.2c0,0.4,0.2,0.7,0.5,1c0.3,0.3,0.9,0.5,1.7,0.8c0.8,0.2,1.4,0.5,1.9,0.8
			s0.8,0.6,1,1c0.2,0.4,0.3,0.8,0.3,1.3c0,0.8-0.3,1.4-0.9,1.9c-0.6,0.5-1.4,0.7-2.5,0.7c-0.7,0-1.3-0.1-1.9-0.4
			c-0.6-0.3-1-0.6-1.3-1.1s-0.5-1-0.5-1.5h1.3c0,0.6,0.2,1.1,0.7,1.4c0.4,0.3,1,0.5,1.7,0.5c0.7,0,1.2-0.1,1.6-0.4
			c0.4-0.3,0.5-0.7,0.5-1.1s-0.2-0.8-0.5-1.1C100.5,11.4,99.9,11.1,99,10.9z"/>
		<path class="st2" d="M107.1,15.3c-1,0-1.8-0.3-2.4-1c-0.6-0.6-0.9-1.5-0.9-2.6v-0.2c0-0.7,0.1-1.4,0.4-1.9c0.3-0.6,0.7-1,1.1-1.3
			c0.5-0.3,1-0.5,1.6-0.5c0.9,0,1.7,0.3,2.2,0.9c0.5,0.6,0.8,1.5,0.8,2.7v0.5H105c0,0.7,0.2,1.3,0.6,1.7s0.9,0.7,1.5,0.7
			c0.4,0,0.8-0.1,1.1-0.3s0.6-0.4,0.8-0.7l0.8,0.6C109.2,14.9,108.3,15.3,107.1,15.3z M106.9,8.9c-0.5,0-0.9,0.2-1.3,0.5
			c-0.3,0.4-0.5,0.9-0.6,1.5h3.6v-0.1c0-0.6-0.2-1.1-0.5-1.5C107.8,9,107.4,8.9,106.9,8.9z"/>
		<path class="st2" d="M115.8,15.2c-0.1-0.1-0.1-0.4-0.2-0.8c-0.6,0.6-1.3,0.9-2.1,0.9c-0.7,0-1.3-0.2-1.8-0.6s-0.7-0.9-0.7-1.5
			c0-0.8,0.3-1.3,0.9-1.8c0.6-0.4,1.4-0.6,2.4-0.6h1.2v-0.6c0-0.4-0.1-0.8-0.4-1c-0.3-0.3-0.6-0.4-1.1-0.4c-0.4,0-0.8,0.1-1.1,0.3
			c-0.3,0.2-0.4,0.5-0.4,0.8h-1.2c0-0.4,0.1-0.7,0.4-1c0.3-0.3,0.6-0.6,1-0.8c0.4-0.2,0.9-0.3,1.4-0.3c0.8,0,1.5,0.2,2,0.6
			c0.5,0.4,0.7,1,0.7,1.7v3.3c0,0.7,0.1,1.2,0.3,1.6v0.1H115.8z M113.7,14.3c0.4,0,0.8-0.1,1.1-0.3c0.3-0.2,0.6-0.5,0.8-0.8v-1.5h-1
			c-1.5,0-2.3,0.4-2.3,1.3c0,0.4,0.1,0.7,0.4,0.9C113,14.2,113.3,14.3,113.7,14.3z"/>
		<path class="st2" d="M122.2,9.1c-0.2,0-0.4,0-0.6,0c-0.8,0-1.4,0.3-1.6,1v5.1h-1.2V8h1.2l0,0.8c0.4-0.6,1-1,1.7-1
			c0.2,0,0.4,0,0.5,0.1V9.1z"/>
		<path class="st2" d="M126.1,14.3c0.4,0,0.8-0.1,1.2-0.4c0.3-0.3,0.5-0.6,0.5-1h1.2c0,0.4-0.2,0.8-0.4,1.2s-0.6,0.7-1.1,0.9
			s-0.9,0.3-1.4,0.3c-1,0-1.8-0.3-2.3-1c-0.6-0.7-0.9-1.6-0.9-2.7v-0.2c0-0.7,0.1-1.3,0.4-1.9c0.3-0.5,0.6-1,1.1-1.3
			s1.1-0.5,1.7-0.5c0.8,0,1.5,0.2,2,0.7c0.5,0.5,0.8,1.1,0.9,1.9h-1.2c0-0.5-0.2-0.9-0.5-1.2c-0.3-0.3-0.7-0.5-1.2-0.5
			c-0.6,0-1.1,0.2-1.5,0.7c-0.3,0.5-0.5,1.1-0.5,2v0.2c0,0.8,0.2,1.5,0.5,1.9C125,14.1,125.5,14.3,126.1,14.3z"/>
		<path class="st2" d="M131.6,8.9c0.5-0.7,1.3-1,2.1-1c1.5,0,2.3,0.9,2.3,2.6v4.8h-1.2v-4.8c0-0.5-0.1-0.9-0.4-1.2
			c-0.2-0.2-0.6-0.4-1.1-0.4c-0.4,0-0.8,0.1-1.1,0.3s-0.5,0.5-0.7,0.8v5.1h-1.2V4.9h1.2V8.9z"/>
	</g>
	<g>
		<path class="st3" d="M50.4,25.9h-0.7V24h-1.9v1.9h-0.7v-4.3h0.7v1.8h1.9v-1.8h0.7V25.9z"/>
		<path class="st3" d="M54.4,24h-1.8v1.3h2v0.6h-2.8v-4.3h2.8v0.6h-2v1.2h1.8V24z"/>
		<path class="st3" d="M56.6,25.3h1.9v0.6h-2.7v-4.3h0.7V25.3z"/>
		<path class="st3" d="M60.4,24.3v1.6h-0.7v-4.3h1.6c0.5,0,0.9,0.1,1.1,0.4c0.3,0.2,0.4,0.6,0.4,1c0,0.4-0.1,0.7-0.4,1
			c-0.3,0.2-0.7,0.3-1.2,0.3H60.4z M60.4,23.7h0.9c0.3,0,0.5-0.1,0.6-0.2c0.1-0.1,0.2-0.3,0.2-0.5c0-0.2-0.1-0.4-0.2-0.6
			c-0.1-0.1-0.3-0.2-0.6-0.2h-0.9V23.7z"/>
		<path class="st3" d="M64.9,25.9h-0.7v-4.3h0.7V25.9z"/>
		<path class="st3" d="M69.8,25.9H69l-1.9-3v3h-0.7v-4.3h0.7l1.9,3v-3h0.7V25.9z"/>
		<path class="st3" d="M74.5,25.3c-0.2,0.2-0.4,0.4-0.6,0.5s-0.6,0.2-0.9,0.2c-0.4,0-0.7-0.1-0.9-0.2s-0.5-0.4-0.6-0.7
			c-0.1-0.3-0.2-0.7-0.2-1.1v-0.3c0-0.6,0.2-1.1,0.5-1.5c0.3-0.4,0.7-0.5,1.3-0.5c0.5,0,0.9,0.1,1.1,0.4c0.3,0.2,0.4,0.6,0.5,1h-0.7
			c-0.1-0.5-0.4-0.8-0.9-0.8c-0.3,0-0.6,0.1-0.8,0.4c-0.2,0.2-0.3,0.6-0.3,1.1v0.3c0,0.5,0.1,0.8,0.3,1.1c0.2,0.3,0.5,0.4,0.8,0.4
			c0.4,0,0.6-0.1,0.8-0.3v-0.8h-0.9v-0.6h1.6V25.3z"/>
		<path class="st3" d="M80.4,24.1h-1.7v1.8h-0.7v-4.3h2.7v0.6h-2v1.3h1.7V24.1z"/>
		<path class="st3" d="M82.6,25.9h-0.7v-4.3h0.7V25.9z"/>
		<path class="st3" d="M87.5,25.9h-0.7l-1.9-3v3h-0.7v-4.3h0.7l1.9,3v-3h0.7V25.9z"/>
		<path class="st3" d="M88.9,25.9v-4.3h1.3c0.4,0,0.7,0.1,1,0.3c0.3,0.2,0.5,0.4,0.7,0.7s0.2,0.7,0.2,1.1v0.2c0,0.4-0.1,0.8-0.2,1.1
			c-0.2,0.3-0.4,0.5-0.7,0.7c-0.3,0.2-0.6,0.2-1,0.2H88.9z M89.7,22.2v3.1h0.5c0.4,0,0.7-0.1,0.9-0.4c0.2-0.2,0.3-0.6,0.3-1v-0.2
			c0-0.5-0.1-0.8-0.3-1.1s-0.5-0.4-0.9-0.4H89.7z"/>
		<path class="st3" d="M98,24h-1.8v1.3h2v0.6h-2.8v-4.3h2.8v0.6h-2v1.2H98V24z"/>
		<path class="st3" d="M101.8,24.9h-1.7l-0.3,1h-0.8l1.6-4.3h0.7l1.6,4.3h-0.8L101.8,24.9z M100.4,24.3h1.2l-0.6-1.8L100.4,24.3z"/>
		<path class="st3" d="M107.2,24.5c0,0.5-0.2,0.8-0.5,1.1c-0.3,0.3-0.7,0.4-1.2,0.4c-0.3,0-0.6-0.1-0.9-0.2
			c-0.3-0.2-0.5-0.4-0.6-0.7s-0.2-0.6-0.2-1v-0.4c0-0.4,0.1-0.8,0.2-1.1s0.3-0.5,0.6-0.7c0.3-0.2,0.6-0.3,0.9-0.3
			c0.5,0,0.8,0.1,1.1,0.4c0.3,0.3,0.5,0.6,0.5,1.1h-0.7c0-0.3-0.1-0.5-0.3-0.7c-0.1-0.1-0.4-0.2-0.6-0.2c-0.3,0-0.6,0.1-0.7,0.4
			c-0.2,0.2-0.3,0.6-0.3,1v0.4c0,0.5,0.1,0.8,0.2,1.1c0.2,0.2,0.4,0.4,0.7,0.4c0.3,0,0.5-0.1,0.7-0.2s0.2-0.3,0.3-0.7H107.2z"/>
		<path class="st3" d="M111.8,25.9h-0.7V24h-1.9v1.9h-0.7v-4.3h0.7v1.8h1.9v-1.8h0.7V25.9z"/>
		<path class="st3" d="M118.8,23.8c0,0.4-0.1,0.8-0.2,1.1c-0.1,0.3-0.4,0.6-0.6,0.7c-0.3,0.2-0.6,0.3-0.9,0.3
			c-0.3,0-0.7-0.1-0.9-0.3c-0.3-0.2-0.5-0.4-0.6-0.7c-0.1-0.3-0.2-0.7-0.2-1.1v-0.2c0-0.4,0.1-0.8,0.2-1.1s0.4-0.6,0.6-0.7
			c0.3-0.2,0.6-0.3,0.9-0.3s0.7,0.1,0.9,0.3c0.3,0.2,0.5,0.4,0.6,0.7c0.1,0.3,0.2,0.7,0.2,1.1V23.8z M118,23.6
			c0-0.5-0.1-0.8-0.3-1.1c-0.2-0.3-0.4-0.4-0.8-0.4c-0.3,0-0.6,0.1-0.8,0.4c-0.2,0.3-0.3,0.6-0.3,1.1v0.2c0,0.5,0.1,0.8,0.3,1.1
			c0.2,0.3,0.4,0.4,0.8,0.4c0.3,0,0.6-0.1,0.8-0.4c0.2-0.3,0.3-0.6,0.3-1.1V23.6z"/>
		<path class="st3" d="M122.9,22.2h-1.3v3.7h-0.7v-3.7h-1.3v-0.6h3.4V22.2z"/>
		<path class="st3" d="M127.4,25.9h-0.7V24h-1.9v1.9H124v-4.3h0.7v1.8h1.9v-1.8h0.7V25.9z"/>
		<path class="st3" d="M131.4,24h-1.8v1.3h2v0.6h-2.8v-4.3h2.8v0.6h-2v1.2h1.8V24z"/>
		<path class="st3" d="M134.4,24.2h-0.8v1.6h-0.7v-4.3h1.5c0.5,0,0.9,0.1,1.1,0.3s0.4,0.5,0.4,1c0,0.3-0.1,0.5-0.2,0.7
			c-0.1,0.2-0.3,0.3-0.6,0.4l1,1.8v0h-0.8L134.4,24.2z M133.6,23.6h0.8c0.3,0,0.4-0.1,0.6-0.2c0.1-0.1,0.2-0.3,0.2-0.5
			c0-0.2-0.1-0.4-0.2-0.5c-0.1-0.1-0.3-0.2-0.6-0.2h-0.8V23.6z"/>
	</g>
</g>
<g>
</g>
<g>
</g>
<g>
</g>
<g>
</g>
<g>
</g>
<g>
</g>
<g>
</g>
<g>
</g>
<g>
</g>
<g>
</g>
<g>
</g>
</svg>
